# xmcd
#
# Track frame offsets:
#	150
#	17274
#	45475
#	64022
#	86916
#	134340
#	154481
#	214433
#	231430
#
# Disc length: 3489 seconds
# Revision: 0
# Processed by: cddbd v1.5.2PL0 Copyright (c) Steve Scherf et al.
# Submitted via: dBpowerAMP V12.0
#
DISCID=7c0d9f09
DTITLE=Van Morrison - Summertime in Montreux CD 2
DYEAR=1900
DGENRE=
TTITLE0=Northern Muse (Solid Ground)
TTITLE1=Haunts Of Ancient Peace
TTITLE2=She Gives Me Religion
TTITLE3=Ballerina
TTITLE4=Summertime In England
TTITLE5=Celtic Swing
TTITLE6=Instrumental Jam
TTITLE7=Cleaning Windows
TTITLE8=What Would I Do
EXTD=
EXTT0=
EXTT1=
EXTT2=
EXTT3=
EXTT4=
EXTT5=
EXTT6=
EXTT7=
EXTT8=
PLAYORDER=
